<svg width="115" height="35" viewBox="0 0 46 14" fill="none"
    xmlns="http://www.w3.org/2000/svg">
    <path d="M19.8926 3.32031V9.57227H23.4199C23.7012 9.57227 23.916 9.64062 24.0645 9.77734C24.2168 9.91406 24.293 10.0859 24.293 10.293C24.293 10.5039 24.2188 10.6758 24.0703 10.8086C23.9219 10.9375 23.7051 11.002 23.4199 11.002H19.2188C18.8398 11.002 18.5664 10.918 18.3984 10.75C18.2344 10.582 18.1523 10.3105 18.1523 9.93555V3.32031C18.1523 2.96875 18.2305 2.70508 18.3867 2.5293C18.5469 2.35352 18.7559 2.26562 19.0137 2.26562C19.2754 2.26562 19.4863 2.35352 19.6465 2.5293C19.8105 2.70117 19.8926 2.96484 19.8926 3.32031Z" fill="#008EE5" />
    <path d="M11.0918 9.70898L9.71484 4.23633V10.166C9.71484 10.4941 9.64062 10.7402 9.49219 10.9043C9.34766 11.0684 9.1543 11.1504 8.91211 11.1504C8.67773 11.1504 8.48633 11.0703 8.33789 10.9102C8.18945 10.7461 8.11523 10.498 8.11523 10.166V3.36914C8.11523 2.99414 8.21289 2.74219 8.4082 2.61328C8.60352 2.48047 8.86719 2.41406 9.19922 2.41406H9.73828C10.0625 2.41406 10.2969 2.44336 10.4414 2.50195C10.5898 2.56055 10.6992 2.66602 10.7695 2.81836C10.8398 2.9707 10.9199 3.21875 11.0098 3.5625L12.2578 8.26758L13.5059 3.5625C13.5957 3.21875 13.6758 2.9707 13.7461 2.81836C13.8164 2.66602 13.9238 2.56055 14.0684 2.50195C14.2168 2.44336 14.4531 2.41406 14.7773 2.41406H15.3164C15.6484 2.41406 15.9121 2.48047 16.1074 2.61328C16.3027 2.74219 16.4004 2.99414 16.4004 3.36914V10.166C16.4004 10.4941 16.3262 10.7402 16.1777 10.9043C16.0332 11.0684 15.8379 11.1504 15.5918 11.1504C15.3613 11.1504 15.1719 11.0684 15.0234 10.9043C14.875 10.7402 14.8008 10.4941 14.8008 10.166V4.23633L13.4238 9.70898C13.334 10.0645 13.2598 10.3262 13.2012 10.4941C13.1465 10.6582 13.043 10.8086 12.8906 10.9453C12.7383 11.082 12.5273 11.1504 12.2578 11.1504C12.0547 11.1504 11.8828 11.1055 11.7422 11.0156C11.6016 10.9297 11.4922 10.8184 11.4141 10.6816C11.3359 10.5449 11.2734 10.3945 11.2266 10.2305C11.1836 10.0625 11.1387 9.88867 11.0918 9.70898Z" fill="#008EE5" />
    <path d="M0.621094 9.33203L2.54297 6.52539L0.925781 4.0293C0.773438 3.78711 0.658203 3.58008 0.580078 3.4082C0.505859 3.23242 0.46875 3.06445 0.46875 2.9043C0.46875 2.74023 0.541016 2.59375 0.685547 2.46484C0.833984 2.33203 1.01367 2.26562 1.22461 2.26562C1.4668 2.26562 1.6543 2.33789 1.78711 2.48242C1.92383 2.62305 2.11133 2.88672 2.34961 3.27344L3.63867 5.35938L5.01562 3.27344C5.12891 3.09766 5.22461 2.94727 5.30273 2.82227C5.38477 2.69727 5.46289 2.59375 5.53711 2.51172C5.61133 2.42969 5.69336 2.36914 5.7832 2.33008C5.87695 2.28711 5.98438 2.26562 6.10547 2.26562C6.32422 2.26562 6.50195 2.33203 6.63867 2.46484C6.7793 2.59375 6.84961 2.74805 6.84961 2.92773C6.84961 3.18945 6.69922 3.54492 6.39844 3.99414L4.70508 6.52539L6.52734 9.33203C6.69141 9.57812 6.81055 9.7832 6.88477 9.94727C6.95898 10.1074 6.99609 10.2598 6.99609 10.4043C6.99609 10.541 6.96289 10.666 6.89648 10.7793C6.83008 10.8926 6.73633 10.9824 6.61523 11.0488C6.49414 11.1152 6.35742 11.1484 6.20508 11.1484C6.04102 11.1484 5.90234 11.1133 5.78906 11.043C5.67578 10.9766 5.58398 10.8926 5.51367 10.791C5.44336 10.6895 5.3125 10.4922 5.12109 10.1992L3.60938 7.82031L2.00391 10.2695C1.87891 10.4648 1.78906 10.6016 1.73438 10.6797C1.68359 10.7578 1.62109 10.834 1.54688 10.9082C1.47266 10.9824 1.38477 11.041 1.2832 11.084C1.18164 11.127 1.0625 11.1484 0.925781 11.1484C0.714844 11.1484 0.539062 11.084 0.398438 10.9551C0.261719 10.8262 0.193359 10.6387 0.193359 10.3926C0.193359 10.1035 0.335938 9.75 0.621094 9.33203Z" fill="#008EE5" />
    <rect x="27" width="19" height="14" rx="2" fill="#008EE5" />
    <path d="M40.125 10.0879V3.32031C40.125 2.96875 40.2051 2.70508 40.3652 2.5293C40.5254 2.35352 40.7324 2.26562 40.9863 2.26562C41.248 2.26562 41.459 2.35352 41.6191 2.5293C41.7832 2.70117 41.8652 2.96484 41.8652 3.32031V10.0879C41.8652 10.4434 41.7832 10.709 41.6191 10.8848C41.459 11.0605 41.248 11.1484 40.9863 11.1484C40.7363 11.1484 40.5293 11.0605 40.3652 10.8848C40.2051 10.7051 40.125 10.4395 40.125 10.0879Z" fill="white" />
    <path d="M30.9492 7.45117V3.32031C30.9492 2.96875 31.0273 2.70508 31.1836 2.5293C31.3438 2.35352 31.5527 2.26562 31.8105 2.26562C32.0801 2.26562 32.293 2.35352 32.4492 2.5293C32.6094 2.70508 32.6895 2.96875 32.6895 3.32031V7.54492C32.6895 8.02539 32.7422 8.42773 32.8477 8.75195C32.957 9.07227 33.1484 9.32227 33.4219 9.50195C33.6953 9.67773 34.0781 9.76562 34.5703 9.76562C35.25 9.76562 35.7305 9.58594 36.0117 9.22656C36.293 8.86328 36.4336 8.31445 36.4336 7.58008V3.32031C36.4336 2.96484 36.5117 2.70117 36.668 2.5293C36.8242 2.35352 37.0332 2.26562 37.2949 2.26562C37.5566 2.26562 37.7676 2.35352 37.9277 2.5293C38.0918 2.70117 38.1738 2.96484 38.1738 3.32031V7.45117C38.1738 8.12305 38.1074 8.68359 37.9746 9.13281C37.8457 9.58203 37.5996 9.97656 37.2363 10.3164C36.9238 10.6055 36.5605 10.8164 36.1465 10.9492C35.7324 11.082 35.248 11.1484 34.6934 11.1484C34.0332 11.1484 33.4648 11.0781 32.9883 10.9375C32.5117 10.793 32.123 10.5723 31.8223 10.2754C31.5215 9.97461 31.3008 9.5918 31.1602 9.12695C31.0195 8.6582 30.9492 8.09961 30.9492 7.45117Z" fill="white" />
</svg>
